<svg width="104" height="100" viewBox="0 0 104 100" fill="none" xmlns="http://www.w3.org/2000/svg">
<path d="M85.0001 13.1667C76.2759 13.1667 69.1667 20.2759 69.1667 29.0001C69.1667 37.7242 76.2759 44.8334 85.0001 44.8334C93.7242 44.8334 100.833 37.7242 100.833 29.0001C100.833 20.2759 93.7242 13.1667 85.0001 13.1667ZM91.8876 34.6526C91.6659 35.0326 91.2701 35.2384 90.8584 35.2384C90.6526 35.2384 90.4467 35.1909 90.2567 35.0642L85.3484 32.1351C84.1292 31.4067 83.2267 29.8076 83.2267 28.3984V21.9067C83.2267 21.2576 83.7651 20.7192 84.4142 20.7192C85.0634 20.7192 85.6017 21.2576 85.6017 21.9067V28.3984C85.6017 28.9684 86.0767 29.8076 86.5676 30.0926L91.4759 33.0217C92.0459 33.3542 92.2359 34.0826 91.8876 34.6526Z" fill="#292D32"/>
<path d="M91.6666 91.6667H8.33325C6.62492 91.6667 5.20825 90.2501 5.20825 88.5417C5.20825 86.8334 6.62492 85.4167 8.33325 85.4167H91.6666C93.3749 85.4167 94.7916 86.8334 94.7916 88.5417C94.7916 90.2501 93.3749 91.6667 91.6666 91.6667Z" fill="#292D32"/>
<path d="M40.625 16.6666V91.6666H59.375V16.6666C59.375 12.0833 57.5 8.33325 51.875 8.33325H48.125C42.5 8.33325 40.625 12.0833 40.625 16.6666Z" fill="#292D32"/>
<path d="M12.5 41.6666V91.6666H29.1667V41.6666C29.1667 37.0833 27.5 33.3333 22.5 33.3333H19.1667C14.1667 33.3333 12.5 37.0833 12.5 41.6666Z" fill="#292D32"/>
<path d="M70.8333 62.5001V91.6667H87.4999V62.5001C87.4999 57.9167 85.8332 54.1667 80.8332 54.1667H77.4999C72.4999 54.1667 70.8333 57.9167 70.8333 62.5001Z" fill="#292D32"/>
</svg>
