<svg width="104" height="100" viewBox="0 0 104 100" fill="none" xmlns="http://www.w3.org/2000/svg">
<path d="M83.9999 9.33325C74.7999 9.33325 67.3333 16.7999 67.3333 25.9999C67.3333 35.1999 74.7999 42.6666 83.9999 42.6666C93.1999 42.6666 100.667 35.1999 100.667 25.9999C100.667 16.7999 93.1999 9.33325 83.9999 9.33325ZM89.8333 27.2499H81.1833L84.0499 30.1166C84.5333 30.5999 84.5333 31.3999 84.0499 31.8833C83.7999 32.1333 83.4833 32.2499 83.1666 32.2499C82.8499 32.2499 82.5333 32.1333 82.2833 31.8833L77.2833 26.8833C76.7999 26.3999 76.7999 25.5999 77.2833 25.1166L82.2833 20.1166C82.7666 19.6333 83.5666 19.6333 84.0499 20.1166C84.5333 20.5999 84.5333 21.3999 84.0499 21.8833L81.1833 24.7499H89.8333C90.5166 24.7499 91.0833 25.3166 91.0833 25.9999C91.0833 26.6833 90.5166 27.2499 89.8333 27.2499Z" fill="#292D32"/>
<path d="M91.6666 91.6667H8.33325C6.62492 91.6667 5.20825 90.2501 5.20825 88.5417C5.20825 86.8334 6.62492 85.4167 8.33325 85.4167H91.6666C93.3749 85.4167 94.7916 86.8334 94.7916 88.5417C94.7916 90.2501 93.3749 91.6667 91.6666 91.6667Z" fill="#292D32"/>
<path d="M40.625 16.6666V91.6666H59.375V16.6666C59.375 12.0833 57.5 8.33325 51.875 8.33325H48.125C42.5 8.33325 40.625 12.0833 40.625 16.6666Z" fill="#292D32"/>
<path d="M12.5 41.6666V91.6666H29.1667V41.6666C29.1667 37.0833 27.5 33.3333 22.5 33.3333H19.1667C14.1667 33.3333 12.5 37.0833 12.5 41.6666Z" fill="#292D32"/>
<path d="M70.8333 62.5001V91.6667H87.4999V62.5001C87.4999 57.9167 85.8332 54.1667 80.8332 54.1667H77.4999C72.4999 54.1667 70.8333 57.9167 70.8333 62.5001Z" fill="#292D32"/>
</svg>
