<svg width="104" height="100" viewBox="0 0 104 100" fill="none" xmlns="http://www.w3.org/2000/svg">
<path d="M8.33337 91.6667H91.6667" stroke="#292D32" stroke-width="3" stroke-miterlimit="10" stroke-linecap="round" stroke-linejoin="round"/>
<path d="M40.625 16.6666V91.6666H59.375V16.6666C59.375 12.0833 57.5 8.33325 51.875 8.33325H48.125C42.5 8.33325 40.625 12.0833 40.625 16.6666Z" stroke="#292D32" stroke-width="3" stroke-linecap="round" stroke-linejoin="round"/>
<path d="M12.5 41.6666V91.6666H29.1667V41.6666C29.1667 37.0833 27.5 33.3333 22.5 33.3333H19.1667C14.1667 33.3333 12.5 37.0833 12.5 41.6666Z" stroke="#292D32" stroke-width="3" stroke-linecap="round" stroke-linejoin="round"/>
<path d="M70.8334 62.5001V91.6667H87.5V62.5001C87.5 57.9167 85.8334 54.1667 80.8334 54.1667H77.5C72.5 54.1667 70.8334 57.9167 70.8334 62.5001Z" stroke="#292D32" stroke-width="3" stroke-linecap="round" stroke-linejoin="round"/>
<path d="M85 44.8334C93.7445 44.8334 100.833 37.7446 100.833 29.0001C100.833 20.2556 93.7445 13.1667 85 13.1667C76.2555 13.1667 69.1666 20.2556 69.1666 29.0001C69.1666 37.7446 76.2555 44.8334 85 44.8334Z" stroke="#292D32" stroke-width="2.5" stroke-linecap="round" stroke-linejoin="round"/>
<path d="M90.5416 29H81.0416" stroke="#292D32" stroke-width="2.5" stroke-linecap="round" stroke-linejoin="round"/>
<path d="M84.2084 24.25L79.4584 29L84.2084 33.75" stroke="#292D32" stroke-width="2.5" stroke-linecap="round" stroke-linejoin="round"/>
</svg>
