<svg width="104" height="100" viewBox="0 0 104 100" fill="none" xmlns="http://www.w3.org/2000/svg">
<path d="M8.33337 91.6667H91.6667" stroke="#292D32" stroke-width="3" stroke-miterlimit="10" stroke-linecap="round" stroke-linejoin="round"/>
<path d="M40.625 16.6666V91.6666H59.375V16.6666C59.375 12.0833 57.5 8.33325 51.875 8.33325H48.125C42.5 8.33325 40.625 12.0833 40.625 16.6666Z" stroke="#292D32" stroke-width="3" stroke-linecap="round" stroke-linejoin="round"/>
<path d="M12.5 41.6666V91.6666H29.1667V41.6666C29.1667 37.0833 27.5 33.3333 22.5 33.3333H19.1667C14.1667 33.3333 12.5 37.0833 12.5 41.6666Z" stroke="#292D32" stroke-width="3" stroke-linecap="round" stroke-linejoin="round"/>
<path d="M70.8334 62.5001V91.6667H87.5V62.5001C87.5 57.9167 85.8334 54.1667 80.8334 54.1667H77.5C72.5 54.1667 70.8334 57.9167 70.8334 62.5001Z" stroke="#292D32" stroke-width="3" stroke-linecap="round" stroke-linejoin="round"/>
<path d="M85 46.0209C75.6108 46.0209 67.9791 38.3892 67.9791 29.0001C67.9791 19.6109 75.6108 11.9792 85 11.9792C94.3891 11.9792 102.021 19.6109 102.021 29.0001C102.021 38.3892 94.3891 46.0209 85 46.0209ZM85 14.3542C76.925 14.3542 70.3541 20.9251 70.3541 29.0001C70.3541 37.0751 76.925 43.6459 85 43.6459C93.075 43.6459 99.6458 37.0751 99.6458 29.0001C99.6458 20.9251 93.075 14.3542 85 14.3542Z" fill="#292D32"/>
<path d="M90.8742 35.2225C90.6684 35.2225 90.4626 35.175 90.2726 35.0484L85.3642 32.1192C84.1451 31.3909 83.2426 29.7917 83.2426 28.3825V21.8909C83.2426 21.2417 83.7809 20.7034 84.4301 20.7034C85.0792 20.7034 85.6176 21.2417 85.6176 21.8909V28.3825C85.6176 28.9525 86.0926 29.7917 86.5834 30.0767L91.4917 33.0059C92.0617 33.3384 92.2359 34.0667 91.9034 34.6367C91.6659 35.0167 91.2701 35.2225 90.8742 35.2225Z" fill="#292D32"/>
</svg>
